<mxfile host="Electron" agent="Mozilla/5.0 (Macintosh; Intel Mac OS X 10_15_7) AppleWebKit/537.36 (KHTML, like Gecko) draw.io/28.2.8 Chrome/140.0.7339.240 Electron/38.4.0 Safari/537.36" version="28.2.8">
  <diagram name="Page-1" id="Jo5HGWiXF6K1SBxBM_kW">
    <mxGraphModel dx="695" dy="517" grid="1" gridSize="10" guides="1" tooltips="1" connect="1" arrows="1" fold="1" page="0" pageScale="1" pageWidth="850" pageHeight="1100" background="none" math="0" shadow="0">
      <root>
        <mxCell id="0" />
        <mxCell id="1" parent="0" />
        <mxCell id="eJdf_IDc0zD8Ro1IZ3yO-1" value="user" style="shape=umlActor;verticalLabelPosition=bottom;verticalAlign=top;html=1;" vertex="1" parent="1">
          <mxGeometry x="80" y="130" width="30" height="60" as="geometry" />
        </mxCell>
        <mxCell id="eJdf_IDc0zD8Ro1IZ3yO-2" value="UI" style="shape=umlLifeline;perimeter=lifelinePerimeter;whiteSpace=wrap;html=1;container=1;dropTarget=0;collapsible=0;recursiveResize=0;outlineConnect=0;portConstraint=eastwest;newEdgeStyle={&quot;curved&quot;:0,&quot;rounded&quot;:0};" vertex="1" parent="1">
          <mxGeometry x="280" y="120" width="100" height="560" as="geometry" />
        </mxCell>
        <mxCell id="eJdf_IDc0zD8Ro1IZ3yO-4" value="" style="html=1;points=[[0,0,0,0,5],[0,1,0,0,-5],[1,0,0,0,5],[1,1,0,0,-5]];perimeter=orthogonalPerimeter;outlineConnect=0;targetShapes=umlLifeline;portConstraint=eastwest;newEdgeStyle={&quot;curved&quot;:0,&quot;rounded&quot;:0};" vertex="1" parent="eJdf_IDc0zD8Ro1IZ3yO-2">
          <mxGeometry x="45" y="80" width="10" height="100" as="geometry" />
        </mxCell>
        <mxCell id="eJdf_IDc0zD8Ro1IZ3yO-12" value="" style="html=1;points=[[0,0,0,0,5],[0,1,0,0,-5],[1,0,0,0,5],[1,1,0,0,-5]];perimeter=orthogonalPerimeter;outlineConnect=0;targetShapes=umlLifeline;portConstraint=eastwest;newEdgeStyle={&quot;curved&quot;:0,&quot;rounded&quot;:0};" vertex="1" parent="eJdf_IDc0zD8Ro1IZ3yO-2">
          <mxGeometry x="45" y="80" width="10" height="260" as="geometry" />
        </mxCell>
        <mxCell id="eJdf_IDc0zD8Ro1IZ3yO-3" value="authentication" style="shape=umlLifeline;perimeter=lifelinePerimeter;whiteSpace=wrap;html=1;container=1;dropTarget=0;collapsible=0;recursiveResize=0;outlineConnect=0;portConstraint=eastwest;newEdgeStyle={&quot;curved&quot;:0,&quot;rounded&quot;:0};" vertex="1" parent="1">
          <mxGeometry x="560" y="120" width="100" height="560" as="geometry" />
        </mxCell>
        <mxCell id="eJdf_IDc0zD8Ro1IZ3yO-7" value="" style="html=1;points=[[0,0,0,0,5],[0,1,0,0,-5],[1,0,0,0,5],[1,1,0,0,-5]];perimeter=orthogonalPerimeter;outlineConnect=0;targetShapes=umlLifeline;portConstraint=eastwest;newEdgeStyle={&quot;curved&quot;:0,&quot;rounded&quot;:0};" vertex="1" parent="eJdf_IDc0zD8Ro1IZ3yO-3">
          <mxGeometry x="45" y="110" width="10" height="230" as="geometry" />
        </mxCell>
        <mxCell id="eJdf_IDc0zD8Ro1IZ3yO-5" value="name" style="endArrow=block;endFill=1;html=1;edgeStyle=orthogonalEdgeStyle;align=left;verticalAlign=top;rounded=0;" edge="1" parent="1" target="eJdf_IDc0zD8Ro1IZ3yO-4">
          <mxGeometry x="-1" relative="1" as="geometry">
            <mxPoint x="100" y="250" as="sourcePoint" />
            <mxPoint x="260" y="250" as="targetPoint" />
            <Array as="points">
              <mxPoint x="160" y="250" />
              <mxPoint x="160" y="250" />
            </Array>
          </mxGeometry>
        </mxCell>
        <mxCell id="eJdf_IDc0zD8Ro1IZ3yO-6" value="1. sinh viên nhập email và mật khẩu&amp;nbsp;" style="edgeLabel;resizable=0;html=1;align=left;verticalAlign=bottom;" connectable="0" vertex="1" parent="eJdf_IDc0zD8Ro1IZ3yO-5">
          <mxGeometry x="-1" relative="1" as="geometry" />
        </mxCell>
        <mxCell id="eJdf_IDc0zD8Ro1IZ3yO-11" value="2. gửi thông tin tài khoản lên hệ thống kiếm tra" style="html=1;verticalAlign=bottom;endArrow=block;curved=0;rounded=0;" edge="1" parent="1">
          <mxGeometry x="-0.0014" width="80" relative="1" as="geometry">
            <mxPoint x="335" y="279.9999999999999" as="sourcePoint" />
            <mxPoint x="605" y="279.9999999999999" as="targetPoint" />
            <mxPoint as="offset" />
          </mxGeometry>
        </mxCell>
        <mxCell id="eJdf_IDc0zD8Ro1IZ3yO-13" value="trả về kết quả đăng nhập" style="html=1;verticalAlign=bottom;endArrow=open;dashed=1;endSize=8;curved=0;rounded=0;" edge="1" parent="1" target="eJdf_IDc0zD8Ro1IZ3yO-2">
          <mxGeometry relative="1" as="geometry">
            <mxPoint x="600" y="380" as="sourcePoint" />
            <mxPoint x="520" y="380" as="targetPoint" />
          </mxGeometry>
        </mxCell>
        <mxCell id="eJdf_IDc0zD8Ro1IZ3yO-24" value="" style="ellipse;html=1;shape=endState;fillColor=#000000;strokeColor=#130000;gradientColor=default;perimeterSpacing=10;strokeWidth=10;" vertex="1" parent="1">
          <mxGeometry x="930" y="510" width="30" height="30" as="geometry" />
        </mxCell>
      </root>
    </mxGraphModel>
  </diagram>
</mxfile>
